<svg width="130" height="36" viewBox="0 0 130 36" fill="none" xmlns="http://www.w3.org/2000/svg">
    <circle cx="22" cy="18" r="16" fill="#FFC107"/>
    <path d="M19.8 10C20.6 9.2 21.8 9.2 22.6 10C23.4 10.8 23.4 12 22.6 12.8C22 13.4 21 13.4 20.4 12.8C19.6 12 19.6 10.8 20.4 10C21.2 9.2 22.4 9.2 23.2 10L25.6 11.6C26.4 12.4 26.4 13.6 25.6 14.4C24.8 15.2 23.6 15.2 22.8 14.4C22 13.6 22 12.4 22.8 11.6L23.6 10.8L21.6 9.2L19.8 10Z" fill="#FF5722"/>
    <text x="35" y="20" font-family="Arial, sans-serif" font-size="18" fill="#FF5722">Saffron</text>
    <text x="35" y="30" font-family="Arial, sans-serif" font-size="10" fill="#4CAF50">SWEETS AND BAKERIES</text>
</svg>
